/* XPM */ 
static const unsigned char * relations_xpm[] = {
"48 48 256 2",
"  	c None",
"! 	c black",
"# 	c #EFF3EF",
"$ 	c #C6D3C6",
"% 	c #96AD96",
"& 	c #CCD8CC",
"' 	c #F7F9F7",
"( 	c #F8F8F8",
") 	c #D2D2D2",
"* 	c #D0D0D0",
"+ 	c #DFDFDF",
", 	c #F3F6F3",
"- 	c #85A885",
". 	c #127012",
"0 	c #067506",
"1 	c #027B02",
"2 	c #1E721E",
"3 	c #9AB69A",
"4 	c #FDFEFD",
"5 	c #191920",
"6 	c #151542",
"7 	c #2B2B32",
"8 	c #337A33",
"9 	c #008000",
": 	c #047804",
"; 	c #639363",
"< 	c #1111F6",
"= 	c #0B0BFD",
"> 	c #6B946B",
"? 	c #017C01",
"@ 	c #067106",
"A 	c #ADBEAD",
"B 	c #0000FF",
"C 	c #ECF0EC",
"D 	c #106D10",
"E 	c #337733",
"F 	c #C1D2C1",
"G 	c #0E730E",
"H 	c #EAF1EA",
"I 	c #ABC2AB",
"J 	c #027C02",
"K 	c #D2E3D2",
"L 	c #CFDCCF",
"M 	c #057505",
"N 	c #127712",
"O 	c #F1F8F1",
"P 	c #1E711E",
"Q 	c #007F00",
"R 	c #528B52",
"S 	c #D9D9D9",
"T 	c #345134",
"U 	c #017501",
"V 	c #107010",
"W 	c #DEE7DE",
"X 	c #15153B",
"Y 	c #2727EC",
"Z 	c #2525F6",
"[ 	c #1D1DEE",
"] 	c #2626EB",
"^ 	c #FCFCFC",
"_ 	c #B5B5B5",
"` 	c #2F2F2F",
"a 	c #404040",
"b 	c #4E7E4E",
"c 	c #0C700C",
"d 	c #95B395",
"e 	c #373744",
"f 	c #383845",
"g 	c #2D2D3A",
"h 	c #080815",
"i 	c #1D1D2A",
"j 	c #3D3D3E",
"k 	c #F4F4F4",
"l 	c #919191",
"m 	c #1C1C1C",
"n 	c #6E6E6E",
"o 	c #E7E7E7",
"p 	c #B1C2B1",
"q 	c #387C38",
"r 	c #157915",
"s 	c #127C12",
"t 	c #4D864D",
"u 	c #CBD7CB",
"v 	c #F2F2F2",
"w 	c #EEEEEE",
"x 	c #969696",
"y 	c #212121",
"z 	c #646464",
"{ 	c #E0E0E0",
"| 	c #616161",
"} 	c #F4FAF4",
"~ 	c #F2F9F2",
" !	c #BEBEBE",
"!!	c #444444",
"#!	c #DDDDDD",
"$!	c #C0C0C0",
"%!	c #373737",
"&!	c #424242",
"'!	c #9E9E9E",
"(!	c #262626",
")!	c #AAAAAA",
"*!	c #878787",
"+!	c #787878",
",!	c #F5E7F1",
"-!	c #E5C4DD",
".!	c #D8B2D2",
"0!	c #C8A9CF",
"1!	c #9883BE",
"2!	c #857DBB",
"3!	c #817AB9",
"4!	c #9790C3",
"5!	c #BFBDDA",
"6!	c #3C3C3C",
"7!	c #3A3A3A",
"8!	c #EDD6E7",
"9!	c #E7CAE0",
":!	c #E3CCE2",
";!	c #C4B5D7",
"<!	c #9A94C9",
"=!	c #7A75B6",
">!	c #746FB0",
"?!	c #6B68AB",
"@!	c #6260A4",
"A!	c #8D8CBB",
"B!	c #D8D8E8",
"C!	c #F2E4F0",
"D!	c #E2BDD8",
"E!	c #E8D2E4",
"F!	c #E1DAEC",
"G!	c #BFBCDD",
"H!	c #A29FCE",
"I!	c #6C68AA",
"J!	c #59579D",
"K!	c #504F95",
"L!	c #7F7FB1",
"M!	c #EAEAF2",
"N!	c #E0B9D7",
"O!	c #DBAFD0",
"P!	c #D3C0DC",
"Q!	c #C7C4E1",
"R!	c #B7B4D8",
"S!	c #9995C7",
"T!	c #736FB0",
"U!	c #59589C",
"V!	c #46468D",
"W!	c #3C3E86",
"X!	c #A6A7C7",
"Y!	c #D9ACCE",
"Z!	c #D19BC5",
"[!	c #B4A5CF",
"]!	c #AFACD4",
"^!	c #9E9BCA",
"_!	c #807CB7",
"`!	c #505095",
"a!	c #323580",
"b!	c #66689E",
"c!	c #D6AACD",
"d!	c #BAC8E6",
"e!	c #B8C7E6",
"f!	c #B5C5E5",
"g!	c #B3C3E4",
"h!	c #AFC0E2",
"i!	c #ACBEE1",
"j!	c #A8BBDF",
"k!	c #A5B8DE",
"l!	c #A2B5DE",
"m!	c #9EB2DC",
"n!	c #9AB0DA",
"o!	c #8EA1CD",
"p!	c #C68EBD",
"q!	c #8177B6",
"r!	c #6260A3",
"s!	c #292C78",
"t!	c #202571",
"u!	c #2B3178",
"v!	c #DBB8D6",
"w!	c #CB9CC5",
"x!	c #987BB3",
"y!	c #181E6C",
"z!	c #111766",
"{!	c #9597BA",
"|!	c #D0AACD",
"}!	c #B78FBE",
"~!	c #7667A5",
" #	c #181E6B",
"!#	c #585C93",
"##	c #E4E4EE",
"$#	c #E4D0E4",
"%#	c #CCAACD",
"&#	c #B091C0",
"'#	c #786BA6",
"(#	c #44448A",
")#	c #32357F",
"*#	c #C8CADC",
"+#	c #F6F6F6",
",#	c #EEE4F0",
"-#	c #D0B7D5",
".#	c #BDA2CA",
"0#	c #AA94C0",
"1#	c #4C458B",
"2#	c #2D2D78",
"3#	c #262974",
"4#	c #4F528D",
"5#	c #2A2A2A",
"6#	c #BBBBBB",
"7#	c #A8A8A8",
"8#	c #1B1B1B",
"9#	c #E8E8E8",
":#	c #A6A6A6",
";#	c #C8C8C8",
"<#	c #696969",
"=#	c #080808",
">#	c #D7D9D7",
"?#	c #3F3F3F",
"@#	c #565656",
"A#	c #939310",
"B#	c #FFFF00",
"C#	c #A2A21F",
"D#	c #057605",
"E#	c #0A5E0A",
"F#	c #264326",
"G#	c #DBDCDB",
"H#	c #4A4A4A",
"I#	c #E4E4E4",
"J#	c #ADAD2A",
"K#	c #898989",
"L#	c #037803",
"M#	c #292929",
"N#	c #585815",
"O#	c #92920F",
"P#	c #C6C6C6",
"Q#	c #067206",
"R#	c #A2A2A2",
"S#	c #858502",
"T#	c #535353",
"U#	c #0F6D0F",
"V#	c #666666",
"W#	c #999999",
"X#	c #0D730D",
"Y#	c #ACACAC",
"Z#	c #91910E",
"[#	c #959512",
"]#	c #D5D5D5",
"^#	c #9F9F1C",
"_#	c #117811",
"`#	c #767676",
"a#	c #9A9A17",
"b#	c #636363",
"c#	c #131313",
"d#	c #333330",
"e#	c #3D3D3A",
"f#	c #555533",
"g#	c #969613",
"h#	c #171717",
"i#	c #CACACA",
"j#	c #F1F1F1",
"                                                                                                ",
"                                                                                                ",
"                                                                              # $ % & '         ",
"    ( ) * * * * * * * * +                                                 , - . 0 1 0 2 3 4     ",
"    ) 5 6 6 6 6 6 6 6 6 7 +                                             , 8 1 9 9 9 9 9 : ;     ",
"    * 6 < = = = = = = < 6 *                                             > ? 9 9 9 9 9 9 9 @ A   ",
"    * 6 = B B B B B B = 6 *                                           C D 9 9 9 9 9 9 9 9 9 E   ",
"    * 6 = B B B B B B = 6 *                                           F : 9 9 9 9 9 9 9 9 9 G H ",
"    * 6 = B B B B B B = 6 *                                           I J 9 9 9 9 9 9 9 9 9 : K ",
"    * 6 = B B B B B B = 6 *                                           L M 9 9 9 9 9 9 9 9 9 N O ",
"    * 6 = B B B B B B = 6 *                                           ' P 9 9 9 9 9 9 9 9 Q R   ",
"    * 6 = B B B B B B = 6 *                                           S T U 9 9 9 9 9 9 9 V W   ",
"    * X Y Z Z Z Z Z [ ] X *                                       ^ _ ` a b @ 9 9 9 9 9 c d     ",
"    + a e f f f f g h i j +                                     k l m n o   p q r s r t u       ",
"      k v v v v v w x y z o                                   { | m x (         } ~ }           ",
"                       !` !!#!                              $!%!%! !                            ",
"                        S &!%!$!                        ( '!y | {                               ",
"                          { | (!)!^                   o n m *!v                                 ",
"                            v +!m x   ,!-!.!0!1!2!3!4!5!6!_ ^                                   ",
"                              ^ x 7!8!9!:!;!<!3!=!>!?!@!A!B!                                    ",
"                                ^ C!D!E!F!G!H!=!>!I!@!J!K!L!M!                                  ",
"                                  N!O!P!Q!R!S!T!I!@!U!K!V!W!X!                                  ",
"                                  Y!Z![!]!^!_!?!@!J!`!V!W!a!b!                                  ",
"                                  c!d!d!e!f!g!h!i!j!k!l!m!n!o!                                  ",
"                                  c!p!q!>!I!r!J!K!V!W!a!s!t!u!                                  ",
"                                  c!d!d!e!f!g!h!i!j!k!l!m!n!o!                                  ",
"                                  v!w!x!r!J!K!V!W!a!s!t!y!z!{!                                  ",
"                                  C!|!}!~!K!V!W!a!s!t! #z!!###                                  ",
"                                    $#%#&#'#(#)#s!t!y!z!!#*#v                                   ",
"                                    +#,#-#.#0#1#2#3#4#{!##5#+!^                                 ",
"                                  ^ l y 6#                7#m x ^                               ",
"                                  7#8#x                   ^ x m _         9#:#(                 ",
"                                ;#(!+!^                     ( n (!;#      <#=#)!                ",
"                      # $ % & >#?#@#v                         v @#?##!  * A#B#C#w               ",
"                  , - . D#? D#E#F#G#                            #!&!H#I#J#B#B#B#K#              ",
"                , 8 J 9 9 9 9 9 L#;                               ) M#a N#B#B#B#O#P#            ",
"                > ? 9 9 9 9 9 9 9 Q#A                               R#S#B#B#B#B#B#T#k           ",
"              C U#9 9 9 9 9 9 9 9 9 E                             ( V#B#B#B#B#B#B#B#W#          ",
"              F : 9 9 9 9 9 9 9 9 9 X#H                           Y#Z#B#B#B#B#B#B#B#[#]#        ",
"              I J 9 9 9 9 9 9 9 9 9 : K                         o ^#B#B#B#B#B#B#B#B#B#V#(       ",
"              L D#9 9 9 9 9 9 9 9 9 _#O                       ^ `#B#B#B#B#B#B#B#B#B#B#B#7#      ",
"              ' 2 9 9 9 9 9 9 9 9 Q R                         $!Z#B#B#B#B#B#B#B#B#B#B#B#a#I#    ",
"                3 : 9 9 9 9 9 9 9 V W                       o 7!B#B#B#B#B#B#B#B#B#B#B#B#B#b#+#  ",
"                4 ; Q#9 9 9 9 9 c d                         7#c#d#e#e#e#e#e#e#e#e#e#e#f#g#h#i#  ",
"                    p q r s r t u                           4 9#v v v v v v v v v v v v j#9#    ",
"                        } ~ }                                                                   ",
"                                                                                                ",
"                                                                                                "};